<mxfile host="app.diagrams.net" modified="2022-08-31T02:35:25.750Z" agent="5.0 (Windows NT 10.0; Win64; x64) AppleWebKit/537.36 (KHTML, like Gecko) Chrome/104.0.5112.87 Whale/3.16.138.22 Safari/537.36" etag="wqS4xEPuNOP_WRsnL_0i" version="20.2.7" type="github">
  <diagram id="vdq5z8CMSKr5yKNPxmBB" name="페이지-1">
    <mxGraphModel dx="1104" dy="817" grid="1" gridSize="10" guides="1" tooltips="1" connect="1" arrows="1" fold="1" page="1" pageScale="1" pageWidth="827" pageHeight="1169" math="0" shadow="0">
      <root>
        <mxCell id="0" />
        <mxCell id="1" parent="0" />
        <mxCell id="G6weKlrUMnO9hpHr3wjq-2" value="재능 중계 플랫폼&lt;br&gt;(숨고)" style="ellipse;whiteSpace=wrap;html=1;" vertex="1" parent="1">
          <mxGeometry x="494" y="360" width="120" height="80" as="geometry" />
        </mxCell>
        <mxCell id="G6weKlrUMnO9hpHr3wjq-3" value="고객" style="rounded=0;whiteSpace=wrap;html=1;fillColor=#dae8fc;strokeColor=#6c8ebf;" vertex="1" parent="1">
          <mxGeometry x="374" y="180" width="120" height="60" as="geometry" />
        </mxCell>
        <mxCell id="G6weKlrUMnO9hpHr3wjq-15" style="edgeStyle=none;rounded=0;orthogonalLoop=1;jettySize=auto;html=1;entryX=0;entryY=0;entryDx=0;entryDy=0;dashed=1;endArrow=none;endFill=0;startArrow=none;" edge="1" parent="1" source="G6weKlrUMnO9hpHr3wjq-16" target="G6weKlrUMnO9hpHr3wjq-4">
          <mxGeometry relative="1" as="geometry">
            <mxPoint x="200" y="193" as="targetPoint" />
          </mxGeometry>
        </mxCell>
        <mxCell id="G6weKlrUMnO9hpHr3wjq-23" style="edgeStyle=none;rounded=0;orthogonalLoop=1;jettySize=auto;html=1;endArrow=block;endFill=1;startSize=13;endSize=12;" edge="1" parent="1" target="G6weKlrUMnO9hpHr3wjq-2">
          <mxGeometry relative="1" as="geometry">
            <mxPoint x="320" y="389.9743589743589" as="sourcePoint" />
            <mxPoint x="494" y="387" as="targetPoint" />
          </mxGeometry>
        </mxCell>
        <mxCell id="G6weKlrUMnO9hpHr3wjq-4" value="고수" style="rounded=0;whiteSpace=wrap;html=1;fillColor=#dae8fc;strokeColor=#6c8ebf;" vertex="1" parent="1">
          <mxGeometry x="200" y="374" width="120" height="60" as="geometry" />
        </mxCell>
        <mxCell id="G6weKlrUMnO9hpHr3wjq-21" style="edgeStyle=none;rounded=0;orthogonalLoop=1;jettySize=auto;html=1;entryX=0;entryY=0.5;entryDx=0;entryDy=0;entryPerimeter=0;dashed=1;endArrow=none;endFill=0;" edge="1" parent="1" source="G6weKlrUMnO9hpHr3wjq-5" target="G6weKlrUMnO9hpHr3wjq-7">
          <mxGeometry relative="1" as="geometry" />
        </mxCell>
        <mxCell id="G6weKlrUMnO9hpHr3wjq-5" value="결제시스템" style="rounded=0;whiteSpace=wrap;html=1;fillColor=#f8cecc;strokeColor=#b85450;" vertex="1" parent="1">
          <mxGeometry x="733" y="495" width="120" height="60" as="geometry" />
        </mxCell>
        <mxCell id="G6weKlrUMnO9hpHr3wjq-22" style="edgeStyle=none;rounded=0;orthogonalLoop=1;jettySize=auto;html=1;entryX=0.5;entryY=1;entryDx=0;entryDy=0;entryPerimeter=0;dashed=1;endArrow=none;endFill=0;" edge="1" parent="1" source="G6weKlrUMnO9hpHr3wjq-6" target="G6weKlrUMnO9hpHr3wjq-10">
          <mxGeometry relative="1" as="geometry" />
        </mxCell>
        <mxCell id="G6weKlrUMnO9hpHr3wjq-6" value="견적시스템" style="rounded=0;whiteSpace=wrap;html=1;fillColor=#f8cecc;strokeColor=#b85450;" vertex="1" parent="1">
          <mxGeometry x="793" y="386" width="120" height="60" as="geometry" />
        </mxCell>
        <mxCell id="G6weKlrUMnO9hpHr3wjq-7" value="N개" style="shape=note;whiteSpace=wrap;html=1;backgroundOutline=1;darkOpacity=0.05;size=17;" vertex="1" parent="1">
          <mxGeometry x="925" y="510" width="60" height="40" as="geometry" />
        </mxCell>
        <mxCell id="G6weKlrUMnO9hpHr3wjq-10" value="N개" style="shape=note;whiteSpace=wrap;html=1;backgroundOutline=1;darkOpacity=0.05;size=17;" vertex="1" parent="1">
          <mxGeometry x="970" y="371" width="60" height="40" as="geometry" />
        </mxCell>
        <mxCell id="G6weKlrUMnO9hpHr3wjq-13" value="N명" style="shape=note;whiteSpace=wrap;html=1;backgroundOutline=1;darkOpacity=0.05;size=17;" vertex="1" parent="1">
          <mxGeometry x="290" y="100" width="60" height="40" as="geometry" />
        </mxCell>
        <mxCell id="G6weKlrUMnO9hpHr3wjq-14" value="" style="edgeStyle=none;rounded=0;orthogonalLoop=1;jettySize=auto;html=1;dashed=1;endArrow=none;endFill=0;entryX=0.5;entryY=1;entryDx=0;entryDy=0;entryPerimeter=0;" edge="1" parent="1" source="G6weKlrUMnO9hpHr3wjq-3" target="G6weKlrUMnO9hpHr3wjq-13">
          <mxGeometry relative="1" as="geometry">
            <mxPoint x="564" y="120" as="sourcePoint" />
            <mxPoint x="516" y="100" as="targetPoint" />
          </mxGeometry>
        </mxCell>
        <mxCell id="G6weKlrUMnO9hpHr3wjq-16" value="N명" style="shape=note;whiteSpace=wrap;html=1;backgroundOutline=1;darkOpacity=0.05;size=17;" vertex="1" parent="1">
          <mxGeometry x="100" y="343" width="60" height="40" as="geometry" />
        </mxCell>
        <mxCell id="G6weKlrUMnO9hpHr3wjq-20" style="edgeStyle=none;rounded=0;orthogonalLoop=1;jettySize=auto;html=1;entryX=0;entryY=0.5;entryDx=0;entryDy=0;entryPerimeter=0;dashed=1;endArrow=none;endFill=0;" edge="1" parent="1" source="G6weKlrUMnO9hpHr3wjq-18" target="G6weKlrUMnO9hpHr3wjq-19">
          <mxGeometry relative="1" as="geometry" />
        </mxCell>
        <mxCell id="G6weKlrUMnO9hpHr3wjq-18" value="SMS발송&lt;br&gt;시스템" style="rounded=0;whiteSpace=wrap;html=1;fillColor=#f8cecc;strokeColor=#b85450;" vertex="1" parent="1">
          <mxGeometry x="494" y="555" width="120" height="60" as="geometry" />
        </mxCell>
        <mxCell id="G6weKlrUMnO9hpHr3wjq-19" value="1개" style="shape=note;whiteSpace=wrap;html=1;backgroundOutline=1;darkOpacity=0.05;size=17;" vertex="1" parent="1">
          <mxGeometry x="554" y="650" width="60" height="40" as="geometry" />
        </mxCell>
        <mxCell id="G6weKlrUMnO9hpHr3wjq-24" value="고수 등록" style="text;html=1;align=center;verticalAlign=middle;whiteSpace=wrap;rounded=0;fillColor=default;" vertex="1" parent="1">
          <mxGeometry x="369" y="376" width="60" height="30" as="geometry" />
        </mxCell>
        <mxCell id="G6weKlrUMnO9hpHr3wjq-29" style="edgeStyle=none;rounded=0;orthogonalLoop=1;jettySize=auto;html=1;entryX=0;entryY=1;entryDx=0;entryDy=0;entryPerimeter=0;endArrow=none;endFill=0;startSize=13;endSize=12;dashed=1;" edge="1" parent="1" source="G6weKlrUMnO9hpHr3wjq-26" target="G6weKlrUMnO9hpHr3wjq-27">
          <mxGeometry relative="1" as="geometry" />
        </mxCell>
        <mxCell id="G6weKlrUMnO9hpHr3wjq-26" value="자격 인증 시스템" style="rounded=0;whiteSpace=wrap;html=1;fillColor=#f8cecc;strokeColor=#b85450;" vertex="1" parent="1">
          <mxGeometry x="673" y="193" width="120" height="60" as="geometry" />
        </mxCell>
        <mxCell id="G6weKlrUMnO9hpHr3wjq-27" value="N개" style="shape=note;whiteSpace=wrap;html=1;backgroundOutline=1;darkOpacity=0.05;size=17;" vertex="1" parent="1">
          <mxGeometry x="865" y="100" width="60" height="40" as="geometry" />
        </mxCell>
        <mxCell id="G6weKlrUMnO9hpHr3wjq-30" style="edgeStyle=none;rounded=0;orthogonalLoop=1;jettySize=auto;html=1;endArrow=block;endFill=1;startSize=13;endSize=12;entryX=0;entryY=0.5;entryDx=0;entryDy=0;exitX=1;exitY=1;exitDx=0;exitDy=0;" edge="1" parent="1" source="G6weKlrUMnO9hpHr3wjq-2" target="G6weKlrUMnO9hpHr3wjq-5">
          <mxGeometry relative="1" as="geometry">
            <mxPoint x="401.33420611913584" y="280" as="sourcePoint" />
            <mxPoint x="507.57359312880726" y="381.7157287525383" as="targetPoint" />
          </mxGeometry>
        </mxCell>
        <mxCell id="G6weKlrUMnO9hpHr3wjq-31" value="결제요청" style="text;html=1;align=center;verticalAlign=middle;whiteSpace=wrap;rounded=0;fillColor=default;" vertex="1" parent="1">
          <mxGeometry x="634" y="462" width="60" height="30" as="geometry" />
        </mxCell>
        <mxCell id="G6weKlrUMnO9hpHr3wjq-37" style="edgeStyle=none;rounded=0;orthogonalLoop=1;jettySize=auto;html=1;endArrow=block;endFill=1;startSize=13;endSize=12;entryX=0;entryY=0.5;entryDx=0;entryDy=0;exitX=1;exitY=0.5;exitDx=0;exitDy=0;" edge="1" parent="1" source="G6weKlrUMnO9hpHr3wjq-2" target="G6weKlrUMnO9hpHr3wjq-6">
          <mxGeometry relative="1" as="geometry">
            <mxPoint x="606.4264068711927" y="438.2842712474617" as="sourcePoint" />
            <mxPoint x="840" y="500" as="targetPoint" />
          </mxGeometry>
        </mxCell>
        <mxCell id="G6weKlrUMnO9hpHr3wjq-38" value="견적요청" style="text;html=1;align=center;verticalAlign=middle;whiteSpace=wrap;rounded=0;fillColor=default;" vertex="1" parent="1">
          <mxGeometry x="673" y="391" width="60" height="30" as="geometry" />
        </mxCell>
        <mxCell id="G6weKlrUMnO9hpHr3wjq-40" style="edgeStyle=none;rounded=0;orthogonalLoop=1;jettySize=auto;html=1;endArrow=block;endFill=1;startSize=13;endSize=12;entryX=0;entryY=1;entryDx=0;entryDy=0;exitX=1;exitY=0;exitDx=0;exitDy=0;" edge="1" parent="1" source="G6weKlrUMnO9hpHr3wjq-2" target="G6weKlrUMnO9hpHr3wjq-26">
          <mxGeometry relative="1" as="geometry">
            <mxPoint x="624" y="410" as="sourcePoint" />
            <mxPoint x="840" y="380" as="targetPoint" />
          </mxGeometry>
        </mxCell>
        <mxCell id="G6weKlrUMnO9hpHr3wjq-41" value="자격 인증 요청" style="text;html=1;align=center;verticalAlign=middle;whiteSpace=wrap;rounded=0;fillColor=default;" vertex="1" parent="1">
          <mxGeometry x="596" y="298" width="81" height="30" as="geometry" />
        </mxCell>
        <mxCell id="G6weKlrUMnO9hpHr3wjq-43" style="edgeStyle=none;rounded=0;orthogonalLoop=1;jettySize=auto;html=1;endArrow=block;endFill=1;startSize=13;endSize=12;exitX=1;exitY=1;exitDx=0;exitDy=0;entryX=0.358;entryY=0.025;entryDx=0;entryDy=0;entryPerimeter=0;" edge="1" parent="1" source="G6weKlrUMnO9hpHr3wjq-3" target="G6weKlrUMnO9hpHr3wjq-2">
          <mxGeometry relative="1" as="geometry">
            <mxPoint x="460.0040608035587" y="173.28" as="sourcePoint" />
            <mxPoint x="570" y="360" as="targetPoint" />
          </mxGeometry>
        </mxCell>
        <mxCell id="G6weKlrUMnO9hpHr3wjq-44" style="edgeStyle=none;rounded=0;orthogonalLoop=1;jettySize=auto;html=1;endArrow=block;endFill=1;startSize=13;endSize=12;entryX=0;entryY=0;entryDx=0;entryDy=0;exitX=0.25;exitY=1;exitDx=0;exitDy=0;" edge="1" parent="1" source="G6weKlrUMnO9hpHr3wjq-3" target="G6weKlrUMnO9hpHr3wjq-2">
          <mxGeometry width="350" height="298" relative="1" as="geometry">
            <mxPoint x="599" y="210" as="sourcePoint" />
            <mxPoint x="540" y="360" as="targetPoint" />
          </mxGeometry>
        </mxCell>
        <mxCell id="G6weKlrUMnO9hpHr3wjq-47" value="견적 요청" style="text;html=1;align=center;verticalAlign=middle;whiteSpace=wrap;rounded=0;fillColor=default;" vertex="1" parent="G6weKlrUMnO9hpHr3wjq-44">
          <mxGeometry x="414" y="281" width="60" height="30" as="geometry" />
        </mxCell>
        <mxCell id="G6weKlrUMnO9hpHr3wjq-45" value="고수 목록&lt;br&gt;확인" style="text;html=1;align=center;verticalAlign=middle;whiteSpace=wrap;rounded=0;fillColor=default;" vertex="1" parent="1">
          <mxGeometry x="482" y="251" width="60" height="30" as="geometry" />
        </mxCell>
        <mxCell id="G6weKlrUMnO9hpHr3wjq-48" value="본인인증제공&lt;br&gt;시스템" style="rounded=0;whiteSpace=wrap;html=1;fillColor=#f8cecc;strokeColor=#b85450;" vertex="1" parent="1">
          <mxGeometry x="805" y="253" width="120" height="60" as="geometry" />
        </mxCell>
        <mxCell id="G6weKlrUMnO9hpHr3wjq-49" style="edgeStyle=none;rounded=0;orthogonalLoop=1;jettySize=auto;html=1;endArrow=block;endFill=1;startSize=13;endSize=12;entryX=0;entryY=0.5;entryDx=0;entryDy=0;exitX=0.942;exitY=0.275;exitDx=0;exitDy=0;exitPerimeter=0;" edge="1" parent="1" source="G6weKlrUMnO9hpHr3wjq-2" target="G6weKlrUMnO9hpHr3wjq-48">
          <mxGeometry relative="1" as="geometry">
            <mxPoint x="624" y="410" as="sourcePoint" />
            <mxPoint x="840" y="380" as="targetPoint" />
          </mxGeometry>
        </mxCell>
        <mxCell id="G6weKlrUMnO9hpHr3wjq-53" value="GPS&lt;br&gt;(소비자)" style="rounded=0;whiteSpace=wrap;html=1;fillColor=#fff2cc;strokeColor=#d6b656;" vertex="1" parent="1">
          <mxGeometry x="290" y="510" width="120" height="60" as="geometry" />
        </mxCell>
        <mxCell id="G6weKlrUMnO9hpHr3wjq-54" style="edgeStyle=none;rounded=0;orthogonalLoop=1;jettySize=auto;html=1;endArrow=block;endFill=1;startSize=13;endSize=12;entryX=1;entryY=0;entryDx=0;entryDy=0;exitX=0;exitY=1;exitDx=0;exitDy=0;" edge="1" parent="1" source="G6weKlrUMnO9hpHr3wjq-2" target="G6weKlrUMnO9hpHr3wjq-53">
          <mxGeometry relative="1" as="geometry">
            <mxPoint x="519.4264068711927" y="578.7157287525383" as="sourcePoint" />
            <mxPoint x="596" y="460" as="targetPoint" />
          </mxGeometry>
        </mxCell>
        <mxCell id="G6weKlrUMnO9hpHr3wjq-56" value="N명" style="shape=note;whiteSpace=wrap;html=1;backgroundOutline=1;darkOpacity=0.05;size=17;" vertex="1" parent="1">
          <mxGeometry x="200" y="620" width="60" height="40" as="geometry" />
        </mxCell>
        <mxCell id="G6weKlrUMnO9hpHr3wjq-57" style="edgeStyle=none;rounded=0;orthogonalLoop=1;jettySize=auto;html=1;entryX=0;entryY=1;entryDx=0;entryDy=0;dashed=1;endArrow=none;endFill=0;startArrow=none;exitX=0;exitY=0;exitDx=60;exitDy=17;exitPerimeter=0;" edge="1" parent="1" source="G6weKlrUMnO9hpHr3wjq-56" target="G6weKlrUMnO9hpHr3wjq-53">
          <mxGeometry relative="1" as="geometry">
            <mxPoint x="220" y="374.7142857142858" as="sourcePoint" />
            <mxPoint x="260" y="381" as="targetPoint" />
          </mxGeometry>
        </mxCell>
        <mxCell id="G6weKlrUMnO9hpHr3wjq-58" value="소비자&lt;br&gt;위치조회" style="text;html=1;align=center;verticalAlign=middle;whiteSpace=wrap;rounded=0;fillColor=default;" vertex="1" parent="1">
          <mxGeometry x="438" y="450" width="60" height="30" as="geometry" />
        </mxCell>
        <mxCell id="G6weKlrUMnO9hpHr3wjq-61" style="edgeStyle=none;rounded=0;orthogonalLoop=1;jettySize=auto;html=1;endArrow=block;endFill=1;startSize=13;endSize=12;entryX=0.5;entryY=0;entryDx=0;entryDy=0;" edge="1" parent="1" source="G6weKlrUMnO9hpHr3wjq-2" target="G6weKlrUMnO9hpHr3wjq-18">
          <mxGeometry relative="1" as="geometry">
            <mxPoint x="561.9964068711927" y="472.0042712474617" as="sourcePoint" />
            <mxPoint x="795.57" y="533.72" as="targetPoint" />
          </mxGeometry>
        </mxCell>
        <mxCell id="G6weKlrUMnO9hpHr3wjq-62" value="문자 발송&lt;br&gt;요청" style="text;html=1;align=center;verticalAlign=middle;whiteSpace=wrap;rounded=0;fillColor=default;" vertex="1" parent="1">
          <mxGeometry x="523" y="470" width="60" height="30" as="geometry" />
        </mxCell>
        <mxCell id="G6weKlrUMnO9hpHr3wjq-63" value="N개" style="shape=note;whiteSpace=wrap;html=1;backgroundOutline=1;darkOpacity=0.05;size=17;" vertex="1" parent="1">
          <mxGeometry x="967" y="203" width="60" height="40" as="geometry" />
        </mxCell>
        <mxCell id="G6weKlrUMnO9hpHr3wjq-64" style="edgeStyle=none;rounded=0;orthogonalLoop=1;jettySize=auto;html=1;entryX=0;entryY=1;entryDx=0;entryDy=0;entryPerimeter=0;dashed=1;endArrow=none;endFill=0;exitX=1;exitY=0;exitDx=0;exitDy=0;" edge="1" parent="1" source="G6weKlrUMnO9hpHr3wjq-48" target="G6weKlrUMnO9hpHr3wjq-63">
          <mxGeometry relative="1" as="geometry">
            <mxPoint x="960" y="364" as="sourcePoint" />
            <mxPoint x="1050" y="340" as="targetPoint" />
          </mxGeometry>
        </mxCell>
        <mxCell id="G6weKlrUMnO9hpHr3wjq-65" value="고객&amp;amp;고수&lt;br&gt;본인인증요청" style="text;html=1;align=center;verticalAlign=middle;whiteSpace=wrap;rounded=0;fillColor=default;" vertex="1" parent="1">
          <mxGeometry x="677" y="313" width="88" height="30" as="geometry" />
        </mxCell>
        <mxCell id="G6weKlrUMnO9hpHr3wjq-71" style="edgeStyle=none;rounded=0;orthogonalLoop=1;jettySize=auto;html=1;endArrow=block;endFill=1;startSize=13;endSize=12;entryX=1;entryY=0.75;entryDx=0;entryDy=0;exitX=0.067;exitY=0.725;exitDx=0;exitDy=0;exitPerimeter=0;" edge="1" parent="1" source="G6weKlrUMnO9hpHr3wjq-2" target="G6weKlrUMnO9hpHr3wjq-4">
          <mxGeometry relative="1" as="geometry">
            <mxPoint x="335" y="436.9743589743589" as="sourcePoint" />
            <mxPoint x="509" y="434" as="targetPoint" />
          </mxGeometry>
        </mxCell>
        <mxCell id="G6weKlrUMnO9hpHr3wjq-72" value="견적 요청" style="text;html=1;align=center;verticalAlign=middle;whiteSpace=wrap;rounded=0;fillColor=default;" vertex="1" parent="1">
          <mxGeometry x="379" y="406" width="60" height="30" as="geometry" />
        </mxCell>
        <mxCell id="G6weKlrUMnO9hpHr3wjq-80" value="" style="group" vertex="1" connectable="0" parent="1">
          <mxGeometry x="20" y="10" width="170" height="100" as="geometry" />
        </mxCell>
        <mxCell id="G6weKlrUMnO9hpHr3wjq-73" value="" style="shape=note;whiteSpace=wrap;html=1;backgroundOutline=1;darkOpacity=0.05;size=17;" vertex="1" parent="G6weKlrUMnO9hpHr3wjq-80">
          <mxGeometry width="170" height="100" as="geometry" />
        </mxCell>
        <mxCell id="G6weKlrUMnO9hpHr3wjq-74" value="" style="rounded=0;whiteSpace=wrap;html=1;fillColor=#dae8fc;strokeColor=#6c8ebf;" vertex="1" parent="G6weKlrUMnO9hpHr3wjq-80">
          <mxGeometry x="10" y="11" width="90" height="20" as="geometry" />
        </mxCell>
        <mxCell id="G6weKlrUMnO9hpHr3wjq-75" value="사용자" style="text;html=1;strokeColor=none;fillColor=none;align=center;verticalAlign=middle;whiteSpace=wrap;rounded=0;" vertex="1" parent="G6weKlrUMnO9hpHr3wjq-80">
          <mxGeometry x="100" y="6" width="60" height="30" as="geometry" />
        </mxCell>
        <mxCell id="G6weKlrUMnO9hpHr3wjq-76" value="" style="rounded=0;whiteSpace=wrap;html=1;fillColor=#f8cecc;strokeColor=#b85450;" vertex="1" parent="G6weKlrUMnO9hpHr3wjq-80">
          <mxGeometry x="10" y="41" width="90" height="20" as="geometry" />
        </mxCell>
        <mxCell id="G6weKlrUMnO9hpHr3wjq-77" value="시스템" style="text;html=1;strokeColor=none;fillColor=none;align=center;verticalAlign=middle;whiteSpace=wrap;rounded=0;" vertex="1" parent="G6weKlrUMnO9hpHr3wjq-80">
          <mxGeometry x="100" y="36" width="60" height="30" as="geometry" />
        </mxCell>
        <mxCell id="G6weKlrUMnO9hpHr3wjq-78" value="" style="rounded=0;whiteSpace=wrap;html=1;fillColor=#fff2cc;strokeColor=#d6b656;" vertex="1" parent="G6weKlrUMnO9hpHr3wjq-80">
          <mxGeometry x="10" y="69" width="90" height="20" as="geometry" />
        </mxCell>
        <mxCell id="G6weKlrUMnO9hpHr3wjq-79" value="장치" style="text;html=1;strokeColor=none;fillColor=none;align=center;verticalAlign=middle;whiteSpace=wrap;rounded=0;" vertex="1" parent="G6weKlrUMnO9hpHr3wjq-80">
          <mxGeometry x="100" y="64" width="60" height="30" as="geometry" />
        </mxCell>
      </root>
    </mxGraphModel>
  </diagram>
</mxfile>
